<svg xmlns="http://www.w3.org/2000/svg" xmlns:xlink="http://www.w3.org/1999/xlink" width="80" zoomAndPan="magnify" viewBox="0 0 60 30.000001" height="40" preserveAspectRatio="xMidYMid meet" version="1.0"><defs><clipPath id="ae99463aa5"><path d="M 15.484375 0 L 44.515625 0 L 44.515625 29.03125 L 15.484375 29.03125 Z M 15.484375 0 " clip-rule="nonzero"/></clipPath></defs><g clip-path="url(#ae99463aa5)"><path fill="#010101" d="M 18.386719 0 L 41.613281 0 C 43.214844 0 44.515625 1.300781 44.515625 2.902344 L 44.515625 26.128906 C 44.515625 27.734375 43.214844 29.03125 41.613281 29.03125 L 18.386719 29.03125 C 16.785156 29.03125 15.484375 27.734375 15.484375 26.128906 L 15.484375 2.902344 C 15.484375 1.300781 16.785156 0 18.386719 0 Z M 18.386719 0 " fill-opacity="1" fill-rule="evenodd"/></g><path fill="#ee1d51" d="M 33.714844 26.710938 C 34.597656 26.710938 35.3125 26 35.3125 25.125 C 35.3125 24.246094 34.597656 23.535156 33.714844 23.535156 L 33.472656 23.535156 C 34.355469 23.535156 35.074219 24.246094 35.074219 25.125 C 35.074219 26 34.355469 26.710938 33.472656 26.710938 Z M 33.714844 26.710938 " fill-opacity="1" fill-rule="evenodd"/><path fill="#66c8cf" d="M 33.449219 23.535156 L 33.210938 23.535156 C 32.328125 23.535156 31.609375 24.246094 31.609375 25.125 C 31.609375 26 32.328125 26.710938 33.210938 26.710938 L 33.449219 26.710938 C 32.566406 26.710938 31.851562 26 31.851562 25.125 C 31.851562 24.246094 32.566406 23.535156 33.449219 23.535156 Z M 33.449219 23.535156 " fill-opacity="1" fill-rule="evenodd"/><path fill="#010101" d="M 34.238281 25.125 C 34.238281 25.335938 34.164062 25.519531 34.011719 25.667969 C 33.859375 25.820312 33.675781 25.894531 33.460938 25.894531 C 33.246094 25.894531 33.0625 25.820312 32.910156 25.667969 C 32.761719 25.519531 32.683594 25.335938 32.683594 25.125 C 32.683594 24.910156 32.761719 24.726562 32.910156 24.578125 C 33.0625 24.425781 33.246094 24.351562 33.460938 24.351562 C 33.675781 24.351562 33.859375 24.425781 34.011719 24.578125 C 34.164062 24.726562 34.238281 24.910156 34.238281 25.125 Z M 34.238281 25.125 " fill-opacity="1" fill-rule="nonzero"/><path fill="#ffffff" d="M 21.289062 22.820312 L 21.289062 23.625 L 22.230469 23.625 L 22.230469 26.6875 L 23.175781 26.6875 L 23.175781 23.644531 L 23.941406 23.644531 L 24.203125 22.820312 Z M 29.003906 22.820312 L 29.003906 23.625 L 29.945312 23.625 L 29.945312 26.6875 L 30.886719 26.6875 L 30.886719 23.644531 L 31.652344 23.644531 L 31.917969 22.820312 Z M 24.378906 23.277344 C 24.378906 23.023438 24.585938 22.820312 24.839844 22.820312 C 25.09375 22.820312 25.300781 23.023438 25.300781 23.277344 C 25.300781 23.527344 25.09375 23.730469 24.839844 23.730469 C 24.585938 23.730469 24.378906 23.527344 24.378906 23.277344 Z M 24.378906 24.058594 L 25.300781 24.058594 L 25.300781 26.6875 L 24.378906 26.6875 Z M 25.695312 22.820312 L 25.695312 26.6875 L 26.613281 26.6875 L 26.613281 25.6875 L 26.898438 25.425781 L 27.796875 26.710938 L 28.785156 26.710938 L 27.492188 24.839844 L 28.652344 23.710938 L 27.535156 23.710938 L 26.613281 24.625 L 26.613281 22.820312 Z M 35.621094 22.820312 L 35.621094 26.6875 L 36.539062 26.6875 L 36.539062 25.6875 L 36.824219 25.425781 L 37.722656 26.710938 L 38.710938 26.710938 L 37.417969 24.839844 L 38.578125 23.710938 L 37.460938 23.710938 L 36.539062 24.625 L 36.539062 22.820312 Z M 35.621094 22.820312 " fill-opacity="1" fill-rule="evenodd"/><path fill="#ee1d52" d="M 34.199219 9.429688 C 35.472656 10.335938 37.027344 10.871094 38.710938 10.871094 L 38.710938 7.636719 C 38.390625 7.636719 38.074219 7.601562 37.761719 7.535156 L 37.761719 10.082031 C 36.082031 10.082031 34.523438 9.546875 33.253906 8.640625 L 33.253906 15.242188 C 33.253906 18.542969 30.574219 21.21875 27.273438 21.21875 C 26.039062 21.21875 24.894531 20.847656 23.941406 20.207031 C 25.027344 21.316406 26.542969 22.007812 28.21875 22.007812 C 31.523438 22.007812 34.199219 19.328125 34.199219 16.027344 Z M 35.367188 6.164062 C 34.71875 5.457031 34.292969 4.539062 34.199219 3.527344 L 34.199219 3.109375 L 33.300781 3.109375 C 33.527344 4.398438 34.300781 5.5 35.367188 6.164062 Z M 26.03125 17.675781 C 25.660156 17.183594 25.472656 16.632812 25.472656 16.019531 C 25.472656 14.507812 26.699219 13.285156 28.210938 13.285156 C 28.492188 13.285156 28.769531 13.328125 29.039062 13.414062 L 29.039062 10.105469 C 28.726562 10.0625 28.410156 10.042969 28.09375 10.050781 L 28.09375 12.625 C 27.824219 12.539062 27.546875 12.496094 27.261719 12.496094 C 25.75 12.496094 24.527344 13.722656 24.527344 15.230469 C 24.527344 16.300781 25.136719 17.222656 26.03125 17.675781 Z M 26.03125 17.675781 " fill-opacity="1" fill-rule="evenodd"/><path fill="#ffffff" d="M 33.253906 8.640625 C 34.523438 9.546875 36.082031 10.082031 37.761719 10.082031 L 37.761719 7.535156 C 36.824219 7.335938 35.992188 6.847656 35.367188 6.164062 C 34.300781 5.5 33.527344 4.398438 33.300781 3.109375 L 30.945312 3.109375 L 30.945312 16.027344 C 30.941406 17.535156 29.71875 18.753906 28.210938 18.753906 C 27.320312 18.753906 26.53125 18.328125 26.03125 17.675781 C 25.136719 17.222656 24.527344 16.300781 24.527344 15.230469 C 24.527344 13.722656 25.75 12.496094 27.261719 12.496094 C 27.550781 12.496094 27.832031 12.542969 28.09375 12.625 L 28.09375 10.050781 C 24.847656 10.117188 22.238281 12.769531 22.238281 16.027344 C 22.238281 17.65625 22.886719 19.128906 23.941406 20.207031 C 24.894531 20.847656 26.039062 21.21875 27.273438 21.21875 C 30.574219 21.21875 33.253906 18.542969 33.253906 15.242188 Z M 33.253906 8.640625 " fill-opacity="1" fill-rule="evenodd"/><path fill="#69c9d0" d="M 37.761719 7.535156 L 37.761719 6.847656 C 36.898438 6.851562 36.101562 6.621094 35.367188 6.164062 C 36.019531 6.878906 36.816406 7.335938 37.761719 7.535156 Z M 33.300781 3.109375 C 33.28125 2.988281 33.265625 2.863281 33.253906 2.738281 L 33.253906 2.324219 L 30 2.324219 L 30 15.242188 C 29.992188 16.746094 28.769531 17.964844 27.261719 17.964844 C 26.820312 17.964844 26.402344 17.859375 26.03125 17.675781 C 26.53125 18.328125 27.320312 18.753906 28.210938 18.753906 C 29.71875 18.753906 30.941406 17.535156 30.945312 16.027344 L 30.945312 3.109375 Z M 28.09375 10.050781 L 28.09375 9.320312 C 27.820312 9.28125 27.546875 9.261719 27.273438 9.261719 C 23.96875 9.261719 21.289062 11.9375 21.289062 15.242188 C 21.289062 17.3125 22.34375 19.136719 23.941406 20.207031 C 22.886719 19.128906 22.238281 17.65625 22.238281 16.027344 C 22.238281 12.769531 24.847656 10.117188 28.09375 10.050781 Z M 28.09375 10.050781 " fill-opacity="1" fill-rule="evenodd"/><path fill="#ffffff" d="M 33.472656 26.710938 C 34.355469 26.710938 35.074219 26 35.074219 25.125 C 35.074219 24.246094 34.355469 23.535156 33.472656 23.535156 L 33.449219 23.535156 C 32.566406 23.535156 31.851562 24.246094 31.851562 25.125 C 31.851562 26 32.566406 26.710938 33.449219 26.710938 Z M 32.683594 25.125 C 32.683594 24.695312 33.03125 24.351562 33.460938 24.351562 C 33.890625 24.351562 34.238281 24.695312 34.238281 25.125 C 34.238281 25.550781 33.890625 25.894531 33.460938 25.894531 C 33.03125 25.894531 32.683594 25.550781 32.683594 25.125 Z M 32.683594 25.125 " fill-opacity="1" fill-rule="evenodd"/></svg>