<svg xmlns="http://www.w3.org/2000/svg" xmlns:xlink="http://www.w3.org/1999/xlink" width="80" zoomAndPan="magnify" viewBox="0 0 60 30.000001" height="40" preserveAspectRatio="xMidYMid meet" version="1.0"><defs><clipPath id="7a83eb190e"><path d="M 15.484375 0 L 44.515625 0 L 44.515625 29.03125 L 15.484375 29.03125 Z M 15.484375 0 " clip-rule="nonzero"/></clipPath></defs><g clip-path="url(#7a83eb190e)"><path fill="#f44336" d="M 44.515625 25 C 44.515625 27.226562 42.710938 29.03125 40.484375 29.03125 L 19.515625 29.03125 C 17.289062 29.03125 15.484375 27.226562 15.484375 25 L 15.484375 4.03125 C 15.484375 1.804688 17.289062 0 19.515625 0 L 40.484375 0 C 42.710938 0 44.515625 1.804688 44.515625 4.03125 Z M 44.515625 25 " fill-opacity="1" fill-rule="nonzero"/></g><path fill="#ffffff" d="M 40.078125 15.722656 C 39.855469 14.929688 39.203125 14.304688 38.367188 14.09375 C 36.859375 13.710938 30 13.710938 30 13.710938 C 30 13.710938 23.140625 13.710938 21.632812 14.09375 C 20.800781 14.308594 20.144531 14.929688 19.921875 15.726562 C 19.515625 17.160156 19.515625 20.160156 19.515625 20.160156 C 19.515625 20.160156 19.515625 23.160156 19.921875 24.597656 C 20.144531 25.390625 20.796875 26.015625 21.632812 26.226562 C 23.140625 26.613281 30 26.613281 30 26.613281 C 30 26.613281 36.859375 26.613281 38.367188 26.226562 C 39.199219 26.015625 39.855469 25.390625 40.078125 24.597656 C 40.484375 23.160156 40.484375 20.160156 40.484375 20.160156 C 40.484375 20.160156 40.484375 17.160156 40.078125 15.722656 Z M 40.078125 15.722656 " fill-opacity="1" fill-rule="nonzero"/><path fill="#f44336" d="M 23.816406 25 L 22.472656 25 L 22.472656 16.65625 L 21.128906 16.65625 L 21.128906 15.324219 L 25.160156 15.324219 L 25.160156 16.65625 L 23.816406 16.65625 Z M 29.195312 25 L 27.984375 25 L 27.847656 24.085938 C 27.320312 24.660156 26.6875 25 26.195312 25 C 25.765625 25 25.464844 24.8125 25.316406 24.472656 C 25.226562 24.261719 25.160156 23.941406 25.160156 23.460938 L 25.160156 17.339844 L 26.503906 17.339844 L 26.503906 23.59375 C 26.539062 23.789062 26.679688 23.859375 26.855469 23.859375 C 27.125 23.859375 27.554688 23.566406 27.847656 23.179688 L 27.847656 17.339844 L 29.195312 17.339844 Z M 38.871094 21.503906 L 38.871094 19.324219 C 38.871094 18.699219 38.714844 18.246094 38.441406 17.953125 C 38.070312 17.550781 37.539062 17.339844 36.875 17.339844 C 36.195312 17.339844 35.671875 17.550781 35.289062 17.953125 C 35 18.246094 34.839844 18.722656 34.839844 19.351562 L 34.839844 23.054688 C 34.839844 23.675781 35.019531 24.113281 35.300781 24.402344 C 35.683594 24.800781 36.210938 25 36.910156 25 C 37.601562 25 38.144531 24.792969 38.507812 24.367188 C 38.667969 24.179688 38.777344 23.96875 38.824219 23.734375 C 38.832031 23.628906 38.871094 23.339844 38.871094 23 L 37.527344 23 L 37.527344 23.535156 C 37.527344 23.839844 37.222656 24.09375 36.855469 24.09375 C 36.484375 24.09375 36.183594 23.839844 36.183594 23.535156 L 36.183594 21.503906 Z M 36.183594 18.863281 C 36.183594 18.550781 36.484375 18.304688 36.855469 18.304688 C 37.222656 18.304688 37.527344 18.550781 37.527344 18.863281 L 37.527344 20.578125 L 36.183594 20.578125 Z M 33.855469 18.140625 C 33.691406 17.617188 33.277344 17.332031 32.769531 17.324219 C 32.117188 17.316406 31.847656 17.65625 31.34375 18.246094 L 31.34375 15.324219 L 30 15.324219 L 30 25 L 31.210938 25 L 31.34375 24.167969 C 31.769531 24.6875 32.320312 25 32.769531 25 C 33.277344 25 33.714844 24.734375 33.882812 24.210938 C 33.964844 23.929688 34.023438 23.671875 34.03125 23.082031 L 34.03125 19.582031 C 34.03125 18.921875 33.945312 18.417969 33.855469 18.140625 Z M 32.6875 22.910156 C 32.6875 23.613281 32.527344 23.851562 32.164062 23.851562 C 31.957031 23.851562 31.558594 23.710938 31.34375 23.5 L 31.34375 18.914062 C 31.558594 18.699219 31.953125 18.492188 32.164062 18.492188 C 32.527344 18.492188 32.6875 18.714844 32.6875 19.414062 Z M 32.6875 22.910156 " fill-opacity="1" fill-rule="nonzero"/><path fill="#ffffff" d="M 22.742188 2.417969 L 24.222656 2.421875 L 25.179688 7.027344 L 25.273438 7.027344 L 26.179688 2.421875 L 27.679688 2.421875 L 25.96875 8.785156 L 25.96875 12.097656 L 24.496094 12.097656 L 24.496094 8.964844 Z M 27.691406 6.519531 C 27.691406 5.976562 27.871094 5.542969 28.222656 5.222656 C 28.574219 4.902344 29.046875 4.738281 29.644531 4.738281 C 30.191406 4.738281 30.632812 4.90625 30.980469 5.246094 C 31.324219 5.582031 31.5 6.019531 31.5 6.554688 L 31.503906 10.171875 C 31.503906 10.769531 31.332031 11.242188 30.996094 11.582031 C 30.65625 11.925781 30.1875 12.097656 29.589844 12.097656 C 29.015625 12.097656 28.558594 11.917969 28.210938 11.566406 C 27.867188 11.21875 27.695312 10.742188 27.695312 10.148438 L 27.691406 6.515625 Z M 29.042969 10.277344 C 29.042969 10.46875 29.089844 10.621094 29.1875 10.726562 C 29.28125 10.828125 29.414062 10.878906 29.585938 10.878906 C 29.765625 10.878906 29.90625 10.828125 30.007812 10.71875 C 30.113281 10.613281 30.167969 10.464844 30.167969 10.277344 L 30.164062 6.460938 C 30.164062 6.308594 30.109375 6.1875 30.003906 6.09375 C 29.898438 6 29.757812 5.949219 29.585938 5.949219 C 29.425781 5.949219 29.292969 6 29.191406 6.09375 C 29.09375 6.1875 29.042969 6.3125 29.042969 6.464844 Z M 36.453125 4.839844 L 36.453125 12.097656 L 35.300781 12.097656 L 35.121094 11.210938 C 34.875 11.5 34.617188 11.71875 34.351562 11.867188 C 34.085938 12.015625 33.828125 12.097656 33.578125 12.097656 C 33.269531 12.097656 33.035156 11.992188 32.878906 11.777344 C 32.722656 11.570312 32.644531 11.253906 32.644531 10.832031 L 32.640625 4.839844 L 33.976562 4.839844 L 33.976562 10.34375 C 33.976562 10.507812 34.007812 10.628906 34.0625 10.703125 C 34.117188 10.777344 34.210938 10.816406 34.332031 10.816406 C 34.433594 10.816406 34.558594 10.769531 34.703125 10.667969 C 34.855469 10.570312 34.992188 10.441406 35.117188 10.289062 L 35.117188 4.839844 Z M 36.453125 4.839844 " fill-opacity="1" fill-rule="nonzero"/></svg>