<svg xmlns="http://www.w3.org/2000/svg" xmlns:xlink="http://www.w3.org/1999/xlink" width="60" zoomAndPan="magnify" viewBox="0 0 60 30.000001" height="40" preserveAspectRatio="xMidYMid meet" version="1.0"><defs><clipPath id="7bd4cc9f70"><path d="M 12.269531 7 L 25 7 L 25 20 L 12.269531 20 Z M 12.269531 7 " clip-rule="nonzero"/></clipPath><clipPath id="c90f8a110f"><path d="M 21.160156 17.132812 L 47.835938 17.132812 L 47.835938 28.832031 L 21.160156 28.832031 Z M 21.160156 17.132812 " clip-rule="nonzero"/></clipPath></defs><g clip-path="url(#7bd4cc9f70)"><path fill="#5271ff" d="M 19.945312 19.582031 L 19.945312 15.289062 L 24.25 15.289062 L 24.25 11.929688 L 19.945312 11.929688 L 19.945312 7.640625 L 16.574219 7.640625 L 16.574219 11.929688 L 12.269531 11.929688 L 12.269531 15.289062 L 16.574219 15.289062 L 16.574219 19.582031 L 19.945312 19.582031 " fill-opacity="1" fill-rule="nonzero"/></g><g clip-path="url(#c90f8a110f)"><path fill="#5271ff" d="M 39.1875 17.453125 L 30.464844 17.453125 C 25.710938 17.453125 21.816406 21.332031 21.816406 26.074219 L 21.816406 28.832031 L 47.835938 28.832031 L 47.835938 26.074219 C 47.835938 21.332031 43.980469 17.453125 39.1875 17.453125 " fill-opacity="1" fill-rule="nonzero"/></g><path fill="#5271ff" d="M 34.84375 0.210938 C 38.917969 0.210938 42.21875 3.503906 42.21875 7.5625 C 42.21875 11.625 38.917969 14.914062 34.84375 14.914062 C 30.773438 14.914062 27.46875 11.625 27.46875 7.5625 C 27.46875 3.503906 30.773438 0.210938 34.84375 0.210938 " fill-opacity="1" fill-rule="nonzero"/></svg>