<svg xmlns="http://www.w3.org/2000/svg" xmlns:xlink="http://www.w3.org/1999/xlink" width="60" zoomAndPan="magnify" viewBox="0 0 60 30.000001" height="40" preserveAspectRatio="xMidYMid meet" version="1.0"><defs><clipPath id="5524f9eb43"><path d="M 23 0 L 43.917969 0 L 43.917969 29 L 23 29 Z M 23 0 " clip-rule="nonzero"/></clipPath><clipPath id="1c886ecc43"><path d="M 16.335938 15 L 23 15 L 23 29 L 16.335938 29 Z M 16.335938 15 " clip-rule="nonzero"/></clipPath></defs><g clip-path="url(#5524f9eb43)"><path fill="#5271ff" d="M 42.824219 16.300781 C 42.886719 15.835938 43.75 15.148438 43.777344 14.679688 C 43.828125 13.828125 42.667969 12.164062 41.867188 11.84375 C 40.601562 11.335938 34.164062 11.574219 34.164062 11.574219 C 33.535156 10.484375 35.285156 7.792969 35.765625 6.628906 C 36.472656 4.929688 36.351562 2.667969 35.460938 1.507812 C 34.367188 0.0898438 32.363281 -0.00390625 32.324219 0.628906 C 32.023438 5.230469 31.132812 6.507812 29.945312 7.417969 C 29.230469 7.964844 28.601562 8.441406 28.273438 9.277344 C 26.246094 14.394531 24.742188 15.582031 23.882812 15.582031 L 23.308594 15.582031 L 23.308594 27.214844 L 29.324219 28.324219 C 29.324219 28.324219 36.789062 29.023438 39.140625 28.324219 C 39.882812 28.105469 41.160156 27.003906 41.460938 26.296875 C 41.632812 25.890625 41.394531 24.933594 41.597656 24.542969 C 41.898438 23.960938 43.167969 23.234375 43.167969 22.449219 C 43.164062 21.886719 42.503906 20.914062 42.550781 20.351562 C 42.601562 19.792969 43.78125 19.023438 43.78125 18.460938 C 43.777344 17.871094 42.746094 16.886719 42.824219 16.300781 Z M 42.824219 16.300781 " fill-opacity="1" fill-rule="nonzero"/></g><g clip-path="url(#1c886ecc43)"><path fill="#5271ff" d="M 22.164062 26.933594 C 22.164062 27.558594 21.648438 28.066406 21.015625 28.066406 L 17.578125 28.066406 C 16.945312 28.066406 16.433594 27.558594 16.433594 26.933594 L 16.433594 16.148438 C 16.433594 15.519531 16.945312 15.011719 17.578125 15.011719 L 21.015625 15.011719 C 21.648438 15.011719 22.164062 15.519531 22.164062 16.148438 Z M 22.164062 26.933594 " fill-opacity="1" fill-rule="nonzero"/></g></svg>