<svg xmlns="http://www.w3.org/2000/svg" xmlns:xlink="http://www.w3.org/1999/xlink" width="60" zoomAndPan="magnify" viewBox="0 0 60 30.000001" height="40" preserveAspectRatio="xMidYMid meet" version="1.0"><defs><clipPath id="9e76a49b72"><path d="M 15.484375 0 L 44.515625 0 L 44.515625 29.03125 L 15.484375 29.03125 Z M 15.484375 0 " clip-rule="nonzero"/></clipPath></defs><g clip-path="url(#9e76a49b72)"><path fill="#5271ff" d="M 44.515625 14.515625 C 44.515625 15.46875 44.421875 16.414062 44.238281 17.347656 C 44.050781 18.28125 43.777344 19.191406 43.410156 20.070312 C 43.046875 20.953125 42.597656 21.789062 42.070312 22.582031 C 41.539062 23.375 40.9375 24.105469 40.265625 24.78125 C 39.589844 25.453125 38.855469 26.054688 38.066406 26.585938 C 37.273438 27.117188 36.4375 27.5625 35.554688 27.925781 C 34.675781 28.292969 33.765625 28.566406 32.832031 28.753906 C 31.898438 28.9375 30.953125 29.03125 30 29.03125 C 29.046875 29.03125 28.101562 28.9375 27.167969 28.753906 C 26.234375 28.566406 25.324219 28.292969 24.445312 27.925781 C 23.5625 27.5625 22.726562 27.117188 21.933594 26.585938 C 21.144531 26.054688 20.410156 25.453125 19.734375 24.78125 C 19.0625 24.105469 18.460938 23.375 17.929688 22.582031 C 17.402344 21.789062 16.953125 20.953125 16.589844 20.070312 C 16.222656 19.191406 15.949219 18.28125 15.761719 17.347656 C 15.578125 16.414062 15.484375 15.46875 15.484375 14.515625 C 15.484375 13.5625 15.578125 12.617188 15.761719 11.683594 C 15.949219 10.75 16.222656 9.839844 16.589844 8.960938 C 16.953125 8.082031 17.402344 7.242188 17.929688 6.453125 C 18.460938 5.660156 19.0625 4.925781 19.734375 4.25 C 20.410156 3.578125 21.144531 2.976562 21.933594 2.445312 C 22.726562 1.917969 23.5625 1.46875 24.445312 1.105469 C 25.324219 0.738281 26.234375 0.464844 27.167969 0.277344 C 28.101562 0.09375 29.046875 0 30 0 C 30.953125 0 31.898438 0.09375 32.832031 0.277344 C 33.765625 0.464844 34.675781 0.738281 35.554688 1.105469 C 36.4375 1.46875 37.273438 1.917969 38.066406 2.445312 C 38.855469 2.976562 39.589844 3.578125 40.265625 4.25 C 40.9375 4.925781 41.539062 5.660156 42.070312 6.453125 C 42.597656 7.242188 43.046875 8.082031 43.410156 8.960938 C 43.777344 9.839844 44.050781 10.75 44.238281 11.683594 C 44.421875 12.617188 44.515625 13.5625 44.515625 14.515625 Z M 44.515625 14.515625 " fill-opacity="1" fill-rule="nonzero"/></g><path fill="#ffffff" d="M 39.558594 11.050781 L 31.484375 4.515625 C 31.246094 4.324219 30.992188 4.292969 30.714844 4.425781 C 30.441406 4.558594 30.304688 4.777344 30.300781 5.082031 L 30.300781 8.007812 C 24.3125 8.390625 20.898438 13.363281 20.898438 21.773438 C 20.898438 21.957031 20.957031 22.121094 21.082031 22.257812 C 21.203125 22.394531 21.359375 22.472656 21.539062 22.496094 C 21.566406 22.496094 21.597656 22.5 21.625 22.5 C 21.792969 22.5 21.945312 22.445312 22.074219 22.339844 C 22.207031 22.234375 22.292969 22.097656 22.332031 21.933594 C 22.382812 21.699219 23.6875 16.34375 30.300781 15.339844 L 30.300781 18.144531 C 30.304688 18.449219 30.441406 18.667969 30.714844 18.800781 C 30.992188 18.929688 31.246094 18.902344 31.484375 18.710938 L 39.558594 12.175781 C 39.644531 12.109375 39.710938 12.023438 39.757812 11.925781 C 39.804688 11.828125 39.828125 11.722656 39.828125 11.613281 C 39.828125 11.503906 39.804688 11.398438 39.757812 11.300781 C 39.710938 11.203125 39.644531 11.117188 39.558594 11.050781 Z M 39.558594 11.050781 " fill-opacity="1" fill-rule="nonzero"/></svg>