<svg xmlns="http://www.w3.org/2000/svg" xmlns:xlink="http://www.w3.org/1999/xlink" width="80" zoomAndPan="magnify" viewBox="0 0 60 30.000001" height="40" preserveAspectRatio="xMidYMid meet" version="1.0"><defs><clipPath id="7a8134c13f"><path d="M 15.484375 0 L 44.515625 0 L 44.515625 29.03125 L 15.484375 29.03125 Z M 15.484375 0 " clip-rule="nonzero"/></clipPath></defs><g clip-path="url(#7a8134c13f)"><path fill="#1d9bf0" d="M 40.886719 29.03125 L 19.113281 29.03125 C 17.109375 29.03125 15.484375 27.40625 15.484375 25.402344 L 15.484375 3.628906 C 15.484375 1.625 17.109375 0 19.113281 0 L 40.886719 0 C 42.890625 0 44.515625 1.625 44.515625 3.628906 L 44.515625 25.402344 C 44.515625 27.40625 42.890625 29.03125 40.886719 29.03125 Z M 40.886719 29.03125 " fill-opacity="1" fill-rule="nonzero"/></g><path fill="#ffffff" d="M 26.632812 21.890625 C 33.476562 21.890625 37.222656 16.214844 37.222656 11.300781 C 37.222656 11.140625 37.222656 10.980469 37.214844 10.820312 C 37.941406 10.300781 38.570312 9.640625 39.074219 8.890625 C 38.40625 9.1875 37.6875 9.382812 36.929688 9.480469 C 37.699219 9.023438 38.289062 8.289062 38.570312 7.417969 C 37.851562 7.847656 37.054688 8.152344 36.207031 8.316406 C 35.523438 7.59375 34.558594 7.140625 33.492188 7.140625 C 31.4375 7.140625 29.769531 8.8125 29.769531 10.867188 C 29.769531 11.15625 29.804688 11.4375 29.863281 11.714844 C 26.769531 11.5625 24.027344 10.074219 22.191406 7.824219 C 21.871094 8.375 21.691406 9.015625 21.691406 9.695312 C 21.691406 10.988281 22.351562 12.128906 23.34375 12.796875 C 22.734375 12.773438 22.160156 12.605469 21.660156 12.332031 C 21.660156 12.347656 21.660156 12.359375 21.660156 12.382812 C 21.660156 14.183594 22.945312 15.691406 24.644531 16.03125 C 24.332031 16.121094 24.003906 16.164062 23.664062 16.164062 C 23.425781 16.164062 23.191406 16.140625 22.96875 16.097656 C 23.4375 17.578125 24.816406 18.652344 26.445312 18.683594 C 25.167969 19.683594 23.5625 20.277344 21.820312 20.277344 C 21.523438 20.277344 21.226562 20.265625 20.933594 20.226562 C 22.574219 21.273438 24.535156 21.890625 26.632812 21.890625 " fill-opacity="1" fill-rule="nonzero"/></svg>