<svg xmlns="http://www.w3.org/2000/svg" xmlns:xlink="http://www.w3.org/1999/xlink" width="60" zoomAndPan="magnify" viewBox="0 0 60 30.000001" height="40" preserveAspectRatio="xMidYMid meet" version="1.0"><defs><clipPath id="588f9062f4"><path d="M 7.40625 0 L 52.40625 0 L 52.40625 29 L 7.40625 29 Z M 7.40625 0 " clip-rule="nonzero"/></clipPath></defs><path fill="#0072ff" d="M 31.195312 20.820312 C 31.925781 20.667969 32.609375 20.398438 33.242188 20.011719 C 33.878906 19.621094 34.429688 19.136719 34.898438 18.554688 C 35.363281 17.972656 35.722656 17.332031 35.964844 16.625 C 36.207031 15.917969 36.324219 15.191406 36.316406 14.445312 C 36.308594 13.695312 36.175781 12.972656 35.914062 12.273438 C 35.65625 11.574219 35.285156 10.9375 34.804688 10.367188 C 34.324219 9.796875 33.761719 9.324219 33.117188 8.949219 C 32.472656 8.574219 31.785156 8.320312 31.050781 8.1875 C 30.914062 8.160156 30.773438 8.164062 30.636719 8.199219 C 30.496094 8.234375 30.371094 8.296875 30.261719 8.386719 C 30.152344 8.476562 30.066406 8.585938 30.003906 8.714844 C 29.941406 8.84375 29.910156 8.980469 29.90625 9.121094 L 29.90625 13.359375 C 29.90625 13.511719 29.878906 13.660156 29.820312 13.800781 C 29.761719 13.941406 29.675781 14.070312 29.570312 14.175781 C 29.460938 14.285156 29.335938 14.371094 29.195312 14.429688 C 29.054688 14.488281 28.90625 14.515625 28.753906 14.515625 L 24.535156 14.515625 C 24.390625 14.519531 24.257812 14.550781 24.128906 14.613281 C 24 14.675781 23.890625 14.761719 23.800781 14.871094 C 23.710938 14.984375 23.648438 15.109375 23.617188 15.246094 C 23.582031 15.386719 23.578125 15.527344 23.605469 15.664062 C 23.679688 16.085938 23.796875 16.496094 23.957031 16.894531 C 24.113281 17.292969 24.308594 17.671875 24.542969 18.03125 C 24.777344 18.390625 25.042969 18.722656 25.339844 19.027344 C 25.640625 19.332031 25.964844 19.605469 26.320312 19.847656 C 26.671875 20.085938 27.046875 20.289062 27.441406 20.453125 C 27.835938 20.621094 28.242188 20.742188 28.660156 20.828125 C 29.078125 20.910156 29.5 20.953125 29.929688 20.949219 C 30.355469 20.949219 30.777344 20.90625 31.195312 20.820312 Z M 31.195312 20.820312 " fill-opacity="1" fill-rule="nonzero"/><g clip-path="url(#588f9062f4)"><path fill="#0072ff" d="M 29.90625 28.988281 C 31.015625 28.988281 32.121094 28.914062 33.21875 28.769531 C 34.316406 28.625 35.402344 28.40625 36.472656 28.117188 C 37.542969 27.828125 38.589844 27.46875 39.617188 27.039062 C 40.640625 26.609375 41.628906 26.117188 42.589844 25.558594 C 43.546875 24.996094 44.464844 24.378906 45.34375 23.695312 C 46.21875 23.015625 47.046875 22.277344 47.828125 21.488281 C 48.609375 20.695312 49.332031 19.859375 50.003906 18.96875 C 50.671875 18.082031 51.28125 17.15625 51.832031 16.1875 C 52.121094 15.671875 52.269531 15.113281 52.269531 14.519531 C 52.269531 13.925781 52.121094 13.371094 51.832031 12.851562 C 51.28125 11.882812 50.671875 10.957031 50.003906 10.070312 C 49.332031 9.183594 48.605469 8.34375 47.828125 7.554688 C 47.046875 6.761719 46.21875 6.027344 45.339844 5.34375 C 44.464844 4.664062 43.546875 4.042969 42.585938 3.484375 C 41.628906 2.921875 40.636719 2.429688 39.613281 2 C 38.589844 1.570312 37.542969 1.210938 36.472656 0.921875 C 35.402344 0.632812 34.316406 0.414062 33.21875 0.269531 C 32.121094 0.121094 31.015625 0.0507812 29.90625 0.0507812 C 28.796875 0.0507812 27.695312 0.121094 26.59375 0.269531 C 25.496094 0.414062 24.410156 0.632812 23.339844 0.921875 C 22.269531 1.210938 21.222656 1.570312 20.199219 2 C 19.175781 2.429688 18.183594 2.921875 17.226562 3.484375 C 16.265625 4.042969 15.347656 4.664062 14.472656 5.34375 C 13.59375 6.027344 12.765625 6.761719 11.988281 7.554688 C 11.207031 8.34375 10.480469 9.183594 9.8125 10.070312 C 9.140625 10.957031 8.53125 11.882812 7.984375 12.851562 C 7.691406 13.371094 7.546875 13.925781 7.546875 14.519531 C 7.546875 15.113281 7.691406 15.671875 7.984375 16.1875 C 8.53125 17.15625 9.140625 18.082031 9.808594 18.96875 C 10.480469 19.859375 11.207031 20.695312 11.984375 21.488281 C 12.765625 22.277344 13.59375 23.015625 14.472656 23.695312 C 15.347656 24.378906 16.265625 24.996094 17.226562 25.558594 C 18.183594 26.117188 19.175781 26.609375 20.199219 27.039062 C 21.222656 27.46875 22.269531 27.828125 23.339844 28.117188 C 24.410156 28.40625 25.496094 28.625 26.59375 28.769531 C 27.695312 28.914062 28.796875 28.988281 29.90625 28.988281 Z M 31.15625 4.949219 C 31.746094 5.027344 32.324219 5.160156 32.890625 5.34375 C 33.457031 5.53125 34 5.765625 34.523438 6.054688 C 35.046875 6.34375 35.539062 6.675781 36 7.054688 C 36.460938 7.433594 36.882812 7.851562 37.265625 8.3125 C 37.648438 8.769531 37.984375 9.257812 38.277344 9.78125 C 38.570312 10.300781 38.8125 10.84375 39.003906 11.410156 C 39.195312 11.976562 39.332031 12.558594 39.417969 13.148438 C 39.5 13.742188 39.53125 14.335938 39.503906 14.933594 C 39.480469 15.53125 39.398438 16.121094 39.261719 16.703125 C 39.128906 17.285156 38.941406 17.851562 38.699219 18.398438 C 38.460938 18.945312 38.171875 19.46875 37.835938 19.960938 C 37.5 20.453125 37.121094 20.914062 36.699219 21.335938 C 36.277344 21.757812 35.820312 22.140625 35.328125 22.476562 C 34.839844 22.816406 34.320312 23.105469 33.773438 23.34375 C 33.230469 23.585938 32.667969 23.773438 32.085938 23.910156 C 31.507812 24.046875 30.917969 24.125 30.324219 24.152344 C 29.726562 24.179688 29.136719 24.148438 28.546875 24.066406 C 27.957031 23.980469 27.378906 23.839844 26.816406 23.648438 C 26.25 23.457031 25.710938 23.214844 25.191406 22.921875 C 24.671875 22.625 24.183594 22.289062 23.726562 21.902344 C 23.269531 21.519531 22.855469 21.09375 22.476562 20.632812 C 22.097656 20.171875 21.765625 19.675781 21.480469 19.152344 C 21.191406 18.628906 20.957031 18.082031 20.773438 17.511719 C 20.585938 16.945312 20.457031 16.363281 20.378906 15.769531 C 20.332031 15.40625 20.304688 15.039062 20.296875 14.667969 C 20.292969 14.300781 20.308594 13.933594 20.34375 13.566406 C 20.378906 13.199219 20.4375 12.835938 20.511719 12.476562 C 20.589844 12.117188 20.6875 11.761719 20.808594 11.410156 C 20.925781 11.0625 21.0625 10.722656 21.21875 10.386719 C 21.375 10.054688 21.550781 9.730469 21.746094 9.417969 C 21.941406 9.105469 22.152344 8.804688 22.378906 8.515625 C 22.605469 8.226562 22.851562 7.953125 23.109375 7.691406 C 23.371094 7.433594 23.644531 7.1875 23.929688 6.957031 C 24.21875 6.730469 24.519531 6.515625 24.832031 6.324219 C 25.140625 6.128906 25.464844 5.953125 25.796875 5.792969 C 26.128906 5.636719 26.46875 5.5 26.816406 5.378906 C 27.164062 5.261719 27.515625 5.164062 27.875 5.085938 C 28.234375 5.007812 28.59375 4.949219 28.960938 4.914062 C 29.324219 4.878906 29.691406 4.863281 30.058594 4.867188 C 30.425781 4.875 30.792969 4.902344 31.15625 4.949219 Z M 31.15625 4.949219 " fill-opacity="1" fill-rule="nonzero"/></g></svg>